<svg width="25" height="26" viewBox="0 0 25 26" fill="none" xmlns="http://www.w3.org/2000/svg">
<path d="M20.3124 4.51852V2.10703C20.3124 1.5475 20.0146 1.03061 19.5312 0.750979C19.0478 0.471353 18.4522 0.471353 17.9686 0.750979C17.4852 1.03061 17.1874 1.54756 17.1874 2.10703V4.45602H14.0623V2.10703C14.0623 1.5475 13.7645 1.03061 13.2811 0.750979C12.7977 0.471353 12.2021 0.471353 11.7187 0.750979C11.2354 1.03061 10.9376 1.54756 10.9376 2.10703V4.45602H7.81247V2.10703C7.81247 1.5475 7.51466 1.03061 7.03129 0.750979C6.54764 0.471353 5.95197 0.471353 5.46864 0.750979C4.98526 1.03061 4.68746 1.54756 4.68746 2.10703V4.51852C3.38688 4.70667 2.19756 5.35768 1.33678 6.35273C0.476007 7.3475 0.00132534 8.61979 0 9.93655V20.1149C0 21.5685 0.576023 22.9625 1.60164 23.9904C2.62726 25.0183 4.0183 25.5955 5.46871 25.5955H19.5313C20.9817 25.5955 22.3727 25.0183 23.3984 23.9904C24.424 22.9626 25 21.5685 25 20.1149V9.93655C24.9986 8.61979 24.524 7.34757 23.6632 6.35273C22.8024 5.35768 21.6131 4.70664 20.3125 4.51852H20.3124ZM5.46857 7.58783H19.5312C20.1527 7.58783 20.7489 7.83524 21.1884 8.2757C21.6279 8.71617 21.8748 9.31367 21.8748 9.93654V11.5023L3.12465 11.5026V9.93653C3.12465 9.31365 3.37153 8.71617 3.81103 8.27569C4.25054 7.83523 4.84675 7.58783 5.46827 7.58783L5.46857 7.58783ZM19.5312 22.4639H5.46857C4.84704 22.4639 4.25086 22.2165 3.81134 21.7761C3.37182 21.3356 3.12496 20.7381 3.12496 20.1152V14.6344H21.8751V20.1152C21.8751 20.7381 21.6282 21.3356 21.1887 21.7761C20.7492 22.2165 20.153 22.4639 19.5315 22.4639H19.5312Z" fill="black"/>
</svg>
