<svg width="25" height="26" viewBox="0 0 25 26" fill="none" xmlns="http://www.w3.org/2000/svg">
<path d="M5.46883 25.0564H19.5313C20.9817 25.0564 22.3727 24.4791 23.3984 23.4513C24.424 22.4234 25 21.0294 25 19.5758V9.39751C25 7.94395 24.424 6.54996 23.3984 5.52206C22.3728 4.49416 20.9817 3.91694 19.5313 3.91694H19.5079L18.8518 2.59775H18.8515C18.4646 1.81564 17.8671 1.1581 17.1262 0.699378C16.3853 0.240619 15.5311 -0.000801549 14.6602 0.00222538H10.3398C9.46897 -0.00077841 8.61475 0.240619 7.87382 0.699378C7.13296 1.15814 6.53537 1.81571 6.14851 2.59775L5.49211 3.91694H5.46868C4.01827 3.91694 2.6273 4.49421 1.60163 5.52206C0.575962 6.5499 0 7.94395 0 9.39751V19.5758C0 21.0294 0.576018 22.4234 1.60163 23.4513C2.62724 24.4792 4.01827 25.0564 5.46868 25.0564H5.46883ZM3.12522 9.39744C3.12522 8.77456 3.37209 8.17709 3.81159 7.73661C4.2511 7.29615 4.8473 7.04875 5.46882 7.04875H6.4571C6.74756 7.04875 7.03203 6.96792 7.27915 6.81528C7.52602 6.66236 7.72574 6.44363 7.85544 6.18339L8.94124 3.9991H8.94151C9.07149 3.73886 9.27094 3.52014 9.51808 3.36722C9.76494 3.21457 10.0497 3.13374 10.3399 3.13402H14.6603C14.9505 3.13374 15.2352 3.21457 15.4821 3.36722C15.7292 3.52014 15.9287 3.73886 16.0586 3.9991L17.1444 6.18339H17.1447C17.2744 6.44363 17.4741 6.66236 17.721 6.81528C17.9681 6.96792 18.2526 7.04875 18.5431 7.04875H19.5313C20.1529 7.04875 20.749 7.29615 21.1886 7.73661C21.6281 8.17708 21.8749 8.77458 21.8749 9.39744V19.5758C21.8749 20.1986 21.6281 20.7961 21.1886 21.2366C20.7491 21.6771 20.1529 21.9245 19.5313 21.9245H5.46885C4.84732 21.9245 4.25114 21.677 3.81162 21.2366C3.37211 20.7961 3.12525 20.1986 3.12525 19.5758L3.12522 9.39744Z" fill="#3C784E"/>
<path d="M12.5 19.5758C14.0539 19.5758 15.5444 18.957 16.6433 17.8557C17.7419 16.7547 18.3594 15.261 18.3594 13.7037C18.3594 12.1464 17.7419 10.6526 16.6433 9.55137C15.5444 8.45007 14.0539 7.83154 12.5 7.83154C10.9461 7.83154 9.45556 8.45005 8.35672 9.55137C7.25809 10.6527 6.64062 12.1464 6.64062 13.7037C6.64062 15.261 7.25806 16.7547 8.35672 17.8557C9.45563 18.957 10.9461 19.5758 12.5 19.5758ZM12.5 10.9633C13.2253 10.9633 13.9207 11.252 14.4335 11.7659C14.9463 12.2798 15.2343 12.9766 15.2343 13.7036C15.2343 14.4303 14.9463 15.1274 14.4335 15.6413C13.9207 16.1552 13.2254 16.4438 12.5 16.4438C11.7746 16.4438 11.0793 16.1552 10.5665 15.6413C10.0537 15.1274 9.76569 14.4303 9.76569 13.7036C9.76569 12.9767 10.0537 12.2798 10.5665 11.7659C11.0793 11.2519 11.7746 10.9633 12.5 10.9633Z" fill="#3C784E"/>
</svg>
