<svg width="22" height="26" viewBox="0 0 22 26" fill="none" xmlns="http://www.w3.org/2000/svg">
<path d="M21.875 21.1802V8.45382C21.8783 7.41369 21.4663 6.41564 20.7303 5.68218L17.0271 1.97087H17.0273C16.2965 1.23413 15.302 0.820985 14.2655 0.823991H4.6875C3.44447 0.823991 2.25209 1.31879 1.37305 2.20002C0.494001 3.08098 0 4.2756 0 5.52168V21.1806C0 22.4266 0.494001 23.6213 1.37305 24.5023C2.25209 25.3835 3.4444 25.8783 4.6875 25.8783H17.1875C18.4305 25.8783 19.6229 25.3835 20.5019 24.5023C21.381 23.6213 21.875 22.4267 21.875 21.1806L21.875 21.1802ZM3.125 21.1802V5.52126C3.125 5.10592 3.28958 4.70776 3.58277 4.41395C3.87568 4.1204 4.27322 3.95546 4.6874 3.95546H14.2654C14.4722 3.95628 14.6703 4.03929 14.8163 4.18621L18.5196 7.89752H18.5193C18.667 8.04471 18.7501 8.24459 18.7498 8.45349V21.1799C18.7498 21.5952 18.5853 21.9934 18.2921 22.2872C17.9992 22.5808 17.6016 22.7457 17.1874 22.7457H4.68745C4.27328 22.7457 3.87571 22.5808 3.58282 22.2872C3.28963 21.9934 3.12505 21.5952 3.12505 21.1799L3.125 21.1802Z" fill="black"/>
<path d="M12.8906 14.9166H8.59361C8.03557 14.9166 7.51974 15.2151 7.24051 15.6998C6.9615 16.1842 6.9615 16.7812 7.24051 17.2655C7.5198 17.75 8.03557 18.0484 8.59361 18.0484H12.8906C13.4489 18.0484 13.9647 17.75 14.2437 17.2655C14.5227 16.7811 14.5227 16.1842 14.2437 15.6998C13.9647 15.2151 13.4489 14.9166 12.8906 14.9166Z" fill="black"/>
<path d="M12.8906 8.65308H8.59361C8.03557 8.65308 7.51974 8.95154 7.24051 9.43595C6.9615 9.92038 6.9615 10.5173 7.24051 11.0017C7.5198 11.4864 8.03557 11.7849 8.59361 11.7849H12.8906C13.4489 11.7849 13.9647 11.4864 14.2437 11.0017C14.5227 10.5173 14.5227 9.92033 14.2437 9.43595C13.9647 8.95157 13.4489 8.65308 12.8906 8.65308Z" fill="black"/>
</svg>
