<svg width="25" height="26" viewBox="0 0 25 26" fill="none" xmlns="http://www.w3.org/2000/svg">
<path d="M22.5313 5.96106L15.6874 1.28664C14.7482 0.6441 13.6373 0.300049 12.5 0.300049C11.3627 0.300049 10.2518 0.644121 9.31255 1.28664L2.46871 5.96106C0.919114 7.01951 -0.0056935 8.77941 2.63786e-05 10.6587V20.6567C2.63786e-05 21.9027 0.493757 23.0974 1.37308 23.9784C2.25213 24.8595 3.44416 25.3544 4.68754 25.3544H20.3126C21.5559 25.3544 22.748 24.8596 23.627 23.9784C24.5063 23.0974 25.0001 21.9028 25.0001 20.6567V10.6468C25.002 8.77165 24.0775 7.01686 22.5314 5.96092L22.5313 5.96106ZM21.8749 20.6568C21.8749 21.0721 21.7103 21.4703 21.4174 21.7641C21.1242 22.0576 20.7269 22.2226 20.3125 22.2226H4.68742C4.27297 22.2226 3.87568 22.0576 3.5825 21.7641C3.28959 21.4703 3.12501 21.0721 3.12501 20.6568V10.6469C3.12474 9.80717 3.53863 9.02212 4.23048 8.54858L11.074 3.87443C11.4939 3.58606 11.991 3.43205 12.4999 3.43205C13.0088 3.43205 13.5059 3.58606 13.9257 3.87443L20.7693 8.54858C21.4611 9.02208 21.8751 9.80717 21.8748 10.6469L21.8749 20.6568Z" fill="black"/>
<path d="M16.4061 15.9591H8.59362C8.03531 15.9591 7.51953 16.2576 7.24051 16.742C6.9615 17.2264 6.9615 17.8234 7.24051 18.3077C7.51953 18.7925 8.03537 19.0909 8.59362 19.0909H16.4061C16.9644 19.0909 17.4802 18.7924 17.7592 18.3077C18.0383 17.8233 18.0383 17.2264 17.7592 16.742C17.4802 16.2576 16.9644 15.9591 16.4061 15.9591Z" fill="black"/>
</svg>
