<svg width="58" height="45" viewBox="0 0 58 45" fill="none" xmlns="http://www.w3.org/2000/svg">
<path d="M46.4806 7.35005L46.9653 7.64148V8.20707C46.9653 9.55995 46.5496 11.7369 45.7922 14.269C45.027 16.8275 43.8887 19.8292 42.3895 22.8551C39.4111 28.8666 34.9202 35.151 28.942 38.093C19.5198 42.7299 8.99086 40.7988 4.86272 39.2504L3.90703 38.8919L4.28502 37.9438C5.95337 33.7589 10.1921 29.0469 14.6627 24.9233C16.5602 23.1732 18.5248 21.5064 20.3973 20.0041C11.3524 25.1643 5.35149 33.4083 3.19444 37.6492L1.69135 40.6043L1.30975 37.3109C-0.495255 21.7324 6.13969 14.5516 6.80254 13.8343C6.81106 13.8251 6.81859 13.8169 6.82511 13.8098L7.56136 14.4865L6.82511 13.8098C7.18988 13.413 14.7708 5.85118 27.6946 5.14409C34.8864 4.75061 39.4598 5.22301 42.3044 5.83816C43.7285 6.14611 44.7225 6.49052 45.3962 6.78188C45.7333 6.92768 45.9882 7.05931 46.1748 7.16489C46.3331 7.25443 46.512 7.3689 46.4806 7.35005Z" fill="#BAB653" stroke="black" stroke-width="2"/>
<rect x="34.1899" y="5" width="7.60345" height="30.05" rx="3.80172" fill="#4F3535" stroke="#3E3E3E" stroke-width="2"/>
<rect x="22.9829" y="23.83" width="7.61" height="30.0172" rx="3.805" transform="rotate(-90 22.9829 23.83)" fill="#4F3535" stroke="#3E3E3E" stroke-width="2"/>
<rect x="35.8252" y="2.44934" width="8.60345" height="31.05" rx="4.30172" fill="#F98638" stroke="black" stroke-width="3"/>
<rect x="24.6182" y="22.2794" width="8.61" height="31.0172" rx="4.305" transform="rotate(-90 24.6182 22.2794)" fill="#F98638" stroke="black" stroke-width="3"/>
</svg>
