<svg width="25" height="26" viewBox="0 0 25 26" fill="none" xmlns="http://www.w3.org/2000/svg">
<path d="M20.5644 1.62025C19.9782 1.03316 19.183 0.703578 18.3542 0.704347H18.1589C17.2659 0.7606 16.4398 1.19833 15.8901 1.9061L13.8672 4.50925L11.1024 5.06521C10.3596 5.21404 9.69598 5.62856 9.23539 6.23124C8.77449 6.83391 8.54785 7.58378 8.59743 8.34156C8.64728 9.09934 8.9698 9.81314 9.50537 10.3502L11.325 12.1861L8.26354 15.2551V15.2554C7.86856 15.6511 7.71438 16.228 7.85903 16.7687C8.0034 17.3094 8.4248 17.7315 8.96418 17.8766C9.50353 18.0213 10.0788 17.8667 10.4738 17.471L13.5394 14.4058L15.3631 16.234C15.8986 16.7706 16.611 17.0942 17.3665 17.1439C18.1225 17.1936 18.8707 16.9664 19.4719 16.5044C20.0731 16.0426 20.4863 15.3774 20.6348 14.6328L21.1894 11.8612L23.7861 9.83333C24.4976 9.28227 24.9373 8.45052 24.9934 7.55104C25.0495 6.65157 24.7164 5.77145 24.0792 5.13573L20.5644 1.62025ZM18.3542 10.0998L17.5732 14.0145L11.7155 8.14246L15.6207 7.35959L18.3542 3.83647L21.8687 7.35959L18.3542 10.0998Z" fill="black"/>
<path d="M0.000236222 7.35956V19.8867V20.0431L0.074329 20.7711V20.7714C0.200722 22.0306 0.758053 23.2069 1.65123 24.1012C2.54467 24.9953 3.71899 25.5518 4.97533 25.6766L5.70154 25.7588H18.5103L19.2366 25.6845H19.2368C20.4929 25.5578 21.6664 24.9991 22.5582 24.1037C23.4503 23.2081 24.0055 22.0309 24.1299 20.7714L24.2119 20.0434C24.2678 19.4839 24.0215 18.9372 23.5661 18.609C23.1109 18.2807 22.5155 18.2209 22.0042 18.4522C21.4929 18.6835 21.1437 19.1706 21.0878 19.7302L21.0137 20.4582C20.9595 20.9972 20.7214 21.501 20.3392 21.8841C19.9571 22.2672 19.4545 22.5062 18.9165 22.5605L18.2761 22.6269H5.93592L5.28761 22.5602V22.5605C4.74989 22.5062 4.24731 22.2672 3.86516 21.8841C3.48299 21.501 3.24464 20.9971 3.19043 20.4582L3.12424 19.8083V7.43774L3.1907 6.78783H3.19043C3.24464 6.2488 3.48299 5.74498 3.86516 5.3619C4.24734 4.97878 4.74995 4.73985 5.28761 4.68577L6.01382 4.61915C6.57197 4.56317 7.05795 4.21309 7.28863 3.70052C7.51936 3.18797 7.4597 2.59104 7.13227 2.13477C6.80485 1.6782 6.25948 1.43137 5.70133 1.48732L4.97511 1.5616C3.71906 1.6883 2.54557 2.247 1.65346 3.14237C0.761625 4.03801 0.206469 5.21522 0.0819934 6.47464L0 7.20292V7.35939L0.000236222 7.35956Z" fill="black"/>
</svg>
