<svg width="25" height="26" viewBox="0 0 25 26" fill="none" xmlns="http://www.w3.org/2000/svg">
<path d="M21.5678 13.953C22.4597 10.2423 21.3619 6.33347 18.6701 3.63449C15.9784 0.935506 12.0801 -0.164917 8.37891 0.729151C7.73346 0.885616 7.16482 1.26817 6.77593 1.80776C6.38703 2.34761 6.20347 3.00899 6.25821 3.67279C6.31322 4.33633 6.60272 4.95839 7.07497 5.42668L10.8777 9.23943C10.766 9.75142 10.51 10.2202 10.1404 10.5908C9.77115 10.9614 9.30326 11.2178 8.79291 11.33L4.99023 7.50931C4.52316 7.03583 3.90247 6.74555 3.24069 6.69039C2.57891 6.63551 1.91931 6.81955 1.38087 7.20948C0.842448 7.59941 0.460923 8.16954 0.304822 8.81671C-0.587931 12.5289 0.510439 16.4397 3.20444 19.1394C5.89844 21.8391 9.79945 22.9379 13.5013 22.0404L16.4725 25.0195C16.8671 25.4151 17.4425 25.5697 17.9818 25.425C18.521 25.28 18.942 24.8578 19.0867 24.3171C19.231 23.7765 19.0769 23.1995 18.6822 22.8039L15.465 19.5782C15.1529 19.2641 14.7635 19.0383 14.3362 18.9242C13.9092 18.81 13.4593 18.8114 13.0328 18.9283C10.4745 19.642 7.72957 19.0034 5.74578 17.2325C3.76262 15.4617 2.81298 12.8018 3.22502 10.1709L7.10203 14.0581H7.10176C7.39507 14.3517 7.79241 14.5166 8.20667 14.5161C9.76008 14.5161 11.2496 13.8976 12.3478 12.7963C13.4461 11.695 14.0631 10.2017 14.0631 8.64417C14.0636 8.22884 13.8991 7.83042 13.6064 7.53633L9.72935 3.64934C10.4246 3.54202 11.131 3.52755 11.8299 3.6062C14.0993 3.86615 16.1413 5.10968 17.418 7.00855C18.6947 8.90769 19.0782 11.2721 18.4671 13.4788C18.35 13.9072 18.3484 14.3588 18.4622 14.7881C18.576 15.217 18.8013 15.6083 19.1153 15.9215L22.3325 19.1472C22.7274 19.5429 23.3025 19.6975 23.8417 19.5527C24.381 19.4077 24.8023 18.9856 24.9466 18.4449C25.0913 17.9042 24.9371 17.3273 24.5422 16.9316L21.5678 13.953Z" fill="black"/>
</svg>
